<?xml version="1.0" ?><!DOCTYPE svg  PUBLIC '-//W3C//DTD SVG 1.1//EN'  'http://www.w3.org/Graphics/SVG/1.1/DTD/svg11.dtd'><svg height="32px" id="_x3C_Layer_x3E_" style="enable-background:new 0 0 32 32;" version="1.1" viewBox="0 0 32 32" width="32px" xml:space="preserve" xmlns="http://www.w3.org/2000/svg" xmlns:xlink="http://www.w3.org/1999/xlink"><style type="text/css">
<![CDATA[
	.st0{fill:#E3F2FD;}
	.st1{fill:#80D8FF;}
	.st2{fill:#1AD2A4;}
	.st3{fill:#ECEFF1;}
	.st4{fill:#55FB9B;}
	.st5{fill:#BBDEFB;}
	.st6{fill:#C1AEE1;}
	.st7{fill:#FF5252;}
	.st8{fill:#FF8A80;}
	.st9{fill:#FFB74D;}
	.st10{fill:#FFF176;}
	.st11{fill:#FFFFFF;}
	.st12{fill:#65C7EA;}
	.st13{fill:#CFD8DC;}
	.st14{fill:#37474F;}
	.st15{fill:#78909C;}
	.st16{fill:#42A5F5;}
	.st17{fill:#455A64;}
]]>
</style><g id="Ethereum_x2C__crypto_x2C__cryptocurrency_3_"><g id="Ethereum_x2C__crypto_x2C__cryptocurrency_2_"><g id="XMLID_257_"><circle class="st16" cx="16" cy="16" id="XMLID_10_" r="14.5"/></g><g id="XMLID_217_"><polygon class="st0" id="XMLID_11_" points="16,5.17 9.5,16 16,26.83 22.5,16    "/></g><g id="XMLID_216_"><polygon class="st5" id="XMLID_12_" points="16,19.21 9.5,16 16,26.83 22.5,16    "/></g></g><g id="XMLID_206_"><g id="XMLID_215_"><path class="st17" d="M16,27.33c-0.09,0-0.18-0.02-0.26-0.07c-0.24-0.14-0.31-0.45-0.17-0.69L21.92,16L16,6.14     L9.93,16.26c-0.14,0.24-0.45,0.31-0.69,0.17c-0.24-0.14-0.31-0.45-0.17-0.69l6.5-10.83c0.18-0.3,0.68-0.3,0.86,0l6.5,10.83     c0.09,0.16,0.09,0.36,0,0.51l-6.5,10.83C16.33,27.25,16.17,27.33,16,27.33z" id="XMLID_781_"/></g><g id="XMLID_214_"><path class="st17" d="M16,27.33c-0.17,0-0.33-0.09-0.43-0.24l-6.5-10.83c-0.14-0.24-0.07-0.54,0.17-0.69     c0.23-0.14,0.54-0.07,0.69,0.17l6.5,10.83c0.14,0.24,0.07,0.54-0.17,0.69C16.18,27.31,16.09,27.33,16,27.33z" id="XMLID_780_"/></g><g id="XMLID_211_"><path class="st17" d="M22.5,16.5c-0.08,0-0.15-0.02-0.22-0.05l-4.51-2.26c-0.25-0.12-0.35-0.42-0.22-0.67     c0.12-0.25,0.42-0.35,0.67-0.22l4.51,2.26c0.25,0.12,0.35,0.42,0.22,0.67C22.86,16.4,22.68,16.5,22.5,16.5z" id="XMLID_779_"/></g><g id="XMLID_210_"><path class="st17" d="M9.5,16.5c-0.18,0-0.36-0.1-0.45-0.28c-0.12-0.25-0.02-0.55,0.22-0.67l4.51-2.26     c0.25-0.12,0.55-0.02,0.67,0.22c0.12,0.25,0.02,0.55-0.22,0.67l-4.51,2.26C9.65,16.48,9.58,16.5,9.5,16.5z" id="XMLID_778_"/></g><g id="XMLID_209_"><path class="st17" d="M16,27.33c-0.18,0-0.34-0.09-0.43-0.24l-6.5-10.83c-0.11-0.19-0.09-0.43,0.06-0.6     c0.15-0.16,0.39-0.21,0.59-0.11L16,18.69l6.28-3.14c0.2-0.1,0.44-0.06,0.59,0.11c0.15,0.16,0.18,0.41,0.06,0.6l-6.5,10.83     C16.34,27.24,16.18,27.33,16,27.33z M10.81,17.21L16,25.86l5.19-8.65l-4.96,2.48c-0.14,0.07-0.31,0.07-0.45,0L10.81,17.21z" id="XMLID_775_"/></g><g id="XMLID_208_"><path class="st17" d="M16,19.37c-0.28,0-0.5-0.22-0.5-0.5V9c0-0.28,0.22-0.5,0.5-0.5s0.5,0.22,0.5,0.5v9.87     C16.5,19.15,16.28,19.37,16,19.37z" id="XMLID_774_"/></g><g id="XMLID_207_"><path class="st17" d="M16,27.33c-0.18,0-0.34-0.09-0.43-0.24l-6.5-10.83c-0.09-0.16-0.09-0.36,0-0.51l6.5-10.83     c0.18-0.3,0.68-0.3,0.86,0l6.5,10.83c0.09,0.16,0.09,0.36,0,0.51l-6.5,10.83C16.34,27.24,16.18,27.33,16,27.33z M10.08,16     L16,25.86L21.92,16L16,6.14L10.08,16z" id="XMLID_771_"/></g><g id="XMLID_255_"><path class="st17" d="M16,31C7.73,31,1,24.27,1,16S7.73,1,16,1s15,6.73,15,15S24.27,31,16,31z M16,2     C8.28,2,2,8.28,2,16s6.28,14,14,14s14-6.28,14-14S23.72,2,16,2z" id="XMLID_768_"/></g></g></g></svg>